<svg xmlns="http://www.w3.org/2000/svg" width="64" height="64" viewBox="0 0 64 64" role="img" aria-label="Dravora mark">
  <defs>
    <linearGradient id="violetFace" x1="0" y1="0" x2="1" y2="1"><stop stop-color="#B69CFF"/><stop offset="1" stop-color="#A78BFA"/></linearGradient>
    <linearGradient id="cyanFace" x1="0" y1="0" x2="1" y2="1"><stop stop-color="#8EF8E8"/><stop offset="1" stop-color="#5EEAD4"/></linearGradient>
  </defs>
  <path d="M32 1 59 17v30L32 63 5 47V17L32 1Z" fill="#090D1A" stroke="#28364E" stroke-width="1.2" stroke-linejoin="round"/>
  <path d="M18 10h16l18 12v20L34 54H18V10Z" fill="url(#violetFace)"/>
  <path d="m18 10 12 7v30l-12 7V10Z" fill="#C7F36B"/>
  <path d="m34 10 18 12v20L34 54l5-11V21l-5-11Z" fill="url(#cyanFace)"/>
  <path d="M30 22h6l7 6v8l-7 6h-6V22Z" fill="#090D1A"/>
  <path d="m30 22 6 0 3 3h-6v14l-3 3V22Z" fill="#111A2A"/>
</svg>
